<svg id="Layer_3" enable-background="new 0 0 64 64" height="512" viewBox="0 0 64 64" width="512" xmlns="http://www.w3.org/2000/svg"><g><path d="m63 32c0-5.164-1.302-10.255-3.749-14.765.48-1.294.749-2.729.749-4.235 0-5.514-3.589-10-8-10-1.795 0-3.448.752-4.784 2.004-4.628-2.612-9.867-4.004-15.216-4.004-5.027 0-9.97 1.234-14.388 3.553-.513-.921-1.485-1.553-2.612-1.553-1.654 0-3 1.346-3 3v2.324c-.691.585-1.361 1.197-2 1.84v-4.164c0-1.654-1.346-3-3-3s-3 1.346-3 3v10c0 .678.148 1.319.393 1.909-2.214 4.334-3.393 9.192-3.393 14.091 0 6.025 1.736 11.837 5 16.86v7.14c0 2.757 2.243 5 5 5 1.963 0 3.649-1.148 4.467-2.798 4.948 3.13 10.631 4.798 16.533 4.798 5.587 0 11.014-1.508 15.784-4.337.888 1.399 2.44 2.337 4.216 2.337 2.757 0 5-2.243 5-5v-5.687c3.92-5.34 6-11.66 6-18.313zm-2 0c0 5.231-1.388 10.236-4 14.667v-.667c0-.552-.448-1-1-1h-1v-22.727c1.248-.625 2.305-1.626 3.132-2.861 1.88 3.905 2.868 8.22 2.868 12.588zm-9-27c3.309 0 6 3.589 6 8 0 3.544-1.792 6.706-4.357 7.688-.388.149-.643.52-.643.935v23.377h-2v-23.377c0-.415-.255-.786-.643-.934-2.565-.983-4.357-4.145-4.357-7.689 0-4.411 2.691-8 6-8zm-4 40c-.552 0-1 .448-1 1v3.415c-4.172 3.596-9.476 5.585-15 5.585-6.024 0-11.686-2.312-16-6.497v-2.503c0-.552-.448-1-1-1h-1v-24.101c2.279-.464 4-2.485 4-4.899v-2.223c4-3.075 8.934-4.777 14-4.777 4.275 0 8.41 1.185 12.024 3.408-.009.197-.024.392-.024.592 0 4.137 1.983 7.763 5 9.273v22.727zm-2.108-38.444c-.719 1.062-1.26 2.314-1.576 3.686-3.744-2.124-7.967-3.242-12.316-3.242-5 0-9.887 1.517-14 4.296v-4.684c4.267-2.357 9.091-3.612 14-3.612 4.874 0 9.648 1.236 13.892 3.556zm-33.892 4.478v2.966c0 .551-.449 1-1 1s-1-.449-1-1v-.86c.631-.735 1.298-1.436 2-2.106zm-6-5.034c0-.551.449-1 1-1s1 .449 1 1v8c0 1.654 1.346 3 3 3s3-1.346 3-3v-8c0-.551.449-1 1-1s1 .449 1 1v10c0 1.654-1.346 3-3 3-.552 0-1 .448-1 1v25h-2v-25c0-.552-.448-1-1-1-1.654 0-3-1.346-3-3zm-.289 13.759c.641.561 1.424.964 2.289 1.14v24.101h-1c-.295 0-.554.133-.737.337-2.131-4.103-3.263-8.649-3.263-13.337 0-4.232.937-8.431 2.711-12.241zm8.289 36.241c0 1.654-1.346 3-3 3s-3-1.346-3-3v-9h6zm18 5c-5.74 0-11.263-1.679-16.016-4.837.001-.055.016-.107.016-.163v-4.793c4.485 3.748 10.085 5.793 16 5.793 5.44 0 10.688-1.768 15-5.007v4.007c0 .26.038.509.077.758-4.535 2.768-9.728 4.242-15.077 4.242zm23-5c0 1.654-1.346 3-3 3s-3-1.346-3-3v-9h6z"/><path d="m28 36c-2.206 0-4 1.794-4 4s1.794 4 4 4 4-1.794 4-4-1.794-4-4-4zm0 6c-1.103 0-2-.897-2-2s.897-2 2-2 2 .897 2 2-.897 2-2 2z"/><path d="m40 24c-1.437 0-2.829.443-4 1.262-1.171-.819-2.563-1.262-4-1.262-3.15 0-5.849 2.069-6.711 5.022-.097-.004-.192-.022-.289-.022-3.86 0-7 3.14-7 7 0 .63.085 1.254.255 1.861-1.442 1.324-2.255 3.16-2.255 5.139 0 3.86 3.14 7 7 7 1.239 0 2.437-.324 3.5-.942 1.063.618 2.261.942 3.5.942 3.173 0 5.856-2.124 6.711-5.024.097.004.192.024.289.024 3.86 0 7-3.14 7-7 0-.396-.035-.794-.104-1.188 1.933-1.292 3.104-3.455 3.104-5.812 0-3.86-3.14-7-7-7zm-5.202 17.604c.134.46.202.93.202 1.396 0 2.757-2.243 5-5 5-1.05 0-2.058-.327-2.916-.944-.174-.126-.379-.189-.584-.189s-.41.063-.584.189c-.858.617-1.866.944-2.916.944-2.757 0-5-2.243-5-5 0-1.588.735-3.048 2.018-4.005.361-.27.498-.748.333-1.167-.233-.591-.351-1.205-.351-1.828 0-2.757 2.243-5 5-5 1.228 0 2.411.455 3.333 1.281.38.341.955.341 1.335 0 .921-.826 2.104-1.281 3.332-1.281 2.757 0 5 2.243 5 5 0 1.872-1.036 3.572-2.702 4.437-.424.22-.633.709-.5 1.167zm7.5-6.167c-.424.22-.633.708-.5 1.167.134.46.202.93.202 1.396 0 2.757-2.243 5-5 5 0-.396-.035-.794-.104-1.188 1.933-1.292 3.104-3.455 3.104-5.812 0-3.86-3.14-7-7-7-1.437 0-2.829.443-4 1.262-.534-.374-1.119-.658-1.729-.869.674-2.004 2.548-3.393 4.729-3.393 1.228 0 2.411.455 3.333 1.281.38.341.955.341 1.335 0 .921-.826 2.104-1.281 3.332-1.281 2.757 0 5 2.243 5 5 0 1.872-1.036 3.572-2.702 4.437z"/><path d="m22.617 22.924c.124.051.254.076.383.076.26 0 .516-.102.707-.293l1.293-1.293c.526-.526 1.474-.526 2 0l.586.586c1.289 1.29 3.539 1.29 4.828 0l.586-.586c.526-.526 1.474-.526 2 0l.586.586c1.289 1.29 3.539 1.29 4.828 0l1.293-1.293c.188-.187.293-.442.293-.707v-6c0-.404-.244-.769-.617-.924-.375-.156-.804-.07-1.09.217l-1.293 1.293c-.526.526-1.474.526-2 0l-.586-.586c-1.289-1.29-3.539-1.29-4.828 0l-.586.586c-.526.526-1.474.526-2 0l-.586-.586c-1.289-1.29-3.539-1.29-4.828 0l-1.293 1.293c-.188.187-.293.442-.293.707v6c0 .404.244.769.617.924zm1.383-6.51 1-1c.526-.526 1.474-.526 2 0l.586.586c1.289 1.29 3.539 1.29 4.828 0l.586-.586c.526-.526 1.474-.526 2 0l.586.586c1.16 1.16 3.113 1.298 4.414.354v3.232l-1 1c-.526.526-1.474.526-2 0l-.586-.586c-.645-.645-1.502-1-2.414-1s-1.77.355-2.414 1l-.586.586c-.526.526-1.474.526-2 0l-.586-.586c-1.159-1.16-3.112-1.299-4.414-.354z"/></g></svg>